PathFileType	4	(X/Y/Z)	example_trial.trc
DataRate	CameraRate	NumFrames	NumMarkers	Units	OrigDataRate	OrigDataStartFrame	OrigNumFrames
100	100	9	20	mm	100	1742	2322
Frame#	Time	Can1			Can2			Can3			ElbowLE			ElbowME			Elbow3			Elbow4			Elbow5			Elbow6			ForearmRS			ForearmUL			Forearm3			Forearm4			HandRS			HandUL			Hand3			Hand4			Hand5			Hand6			Hand7			
		X1	Y1	Z1	X2	Y2	Z2	X3	Y3	Z3	X4	Y4	Z4	X5	Y5	Z5	X6	Y6	Z6	X7	Y7	Z7	X8	Y8	Z8	X9	Y9	Z9	X10	Y10	Z10	X11	Y11	Z11	X12	Y12	Z12	X13	Y13	Z13	X14	Y14	Z14	X15	Y15	Z15	X16	Y16	Z16	X17	Y17	Z17	X18	Y18	Z18	X19	Y19	Z19	X20	Y20	Z20	

1742	17.41	440.22436590998933	83.27007619926206	191.38469365036488	417.25694702500977	93.82855628431228	190.83289592523963	435.2911177665019	48.30585275939435	193.97367129827268	-0.26271781211577316	-69.719357731365	0.42374321548708105	-1.8213253964997635	89.98874557936065	-0.6294611928257323	103.96517004583745	-34.59158870983373	6.054475744579086	102.34948091049168	32.976005738071024	3.9181650048345364	84.87206242269511	34.42824452725752	57.69912783085085	86.02587825267516	-33.13936460219877	58.87262091633948	168.04444106436821	1.774047225306198	105.47618874933934	198.37908544301402	-2.0060275868846134	12.491133669625812	125.28475141051065	-34.652173996074715	13.900215115385787	124.42625685587473	32.39339983668619	10.85402318434043	303.88920998640276	3.624304366151348	132.8600603496613	322.0362435127966	0.4172409196139064	66.26127900740697	402.54494382336674	-27.792465230434793	99.19994275862992	436.256290717184	-19.68709963292487	106.24999385976272	414.7148204732537	-23.23207252506837	136.19482804403114	420.4440668154554	-18.500600661897195	162.6490878232882	389.0083441869638	-23.760704569771395	150.65394936398835	
1743	17.42	440.18256763144865	83.16645879714653	191.55962505183456	417.2120371125941	93.69888923207252	191.03916719693902	435.2631078764835	48.18722553014159	194.0642298913756	-0.24419073236160305	-69.71282959199837	0.42849153135657525	-1.2011113129430164	90.4193246596067	0.8630930967058625	103.90061960643433	-34.71500025429707	6.132287186167929	102.35608416180192	32.96064511427503	3.9105295259087196	84.88249195412487	34.436299358797946	57.70259544248787	86.03689646421194	-33.137149526224576	58.87431759817358	168.05539463906624	1.633313505599567	105.4867372013717	198.4808985318435	-2.1215283767689854	12.584765600863284	125.33324006295737	-34.565711214056385	13.799182810320637	124.4075447318074	32.46776545188283	10.939614617950829	303.90597207210226	3.5492870785658166	132.86864981960815	322.82182294906727	-0.4791262724163552	66.04154540282664	402.58420604226023	-27.68484281541149	99.11088570763803	436.2829916680099	-19.58521892820006	106.17219197324397	414.74422353667467	-23.202511290006488	136.10758462892161	420.3094923113422	-18.524954218837568	162.41355468949087	388.93357186241883	-23.782475638782344	150.6036364240046	
1744	17.43	440.13934319175826	83.04003470593548	191.73723972944754	417.15739134662874	93.55630519575854	191.2537226288357	435.2659644164521	48.048865614100166	194.13774905452402	-0.23842233015648606	-69.72924109923301	0.4373373005347225	-1.8303058316172027	89.98137075069515	-0.6535100775323656	103.96213530716504	-34.48262310555818	6.084194836038806	102.36701007599986	32.98404369793241	3.9155647951375645	84.89212817229328	34.437090561716545	57.69865058367699	86.04701674220489	-33.13002832597856	58.86439868722435	168.0801324653484	1.4970962173341462	105.48116611483081	198.14089006311926	-1.5830197544374052	12.11147432203336	125.35534635401824	-34.5045339824839	13.696803149423324	124.39021955629126	32.55469485192451	11.011961212567899	303.9297728864523	3.4477760919899527	132.84085698291955	322.75457830298933	1.202813596701315	66.28713860305518	402.604736668925	-27.580169452714753	98.96537790306263	436.30898447142516	-19.46862139887324	106.05796208869859	415.04890810401207	-23.479311504106523	136.08148761760896	420.41356225944753	-18.629545580119036	162.4099680537287	389.1161635283657	-23.862345881038614	150.46090716261799	
1745	17.44	440.0980958795001	82.94222603615876	191.89040964421667	417.12264047035205	93.4349499222613	191.4385627376706	435.26821723118286	47.93261418693189	194.2170790725927	-0.24283289778915496	-69.7370284364194	0.437860158963144	-1.8264001240457208	89.98008154297334	-0.6649575721035514	103.93279660102753	-34.79109743550018	6.110508614997819	102.3725246120191	32.978781663898	3.9116761830444933	84.89816476736583	34.43634133764612	57.686299037088105	86.05998388366525	-33.135934939421055	58.858704135589626	168.10953560585665	1.3711720176588624	105.47528515889286	198.52813485723928	-1.9168107786788173	12.506090639964441	125.41256130604425	-34.43289425300327	13.620861005932728	124.36762563501759	32.626316439857	11.075157098480146	303.9557355905843	3.3715224706790803	132.82992499066285	322.65279586962055	0.9879090877724686	66.35969952001051	402.64633435020477	-27.47898774610447	98.857928434674	436.33343401894933	-19.36264032493269	105.95557048268161	414.9682271982807	-23.614189316950686	136.0915549485123	420.58979698480834	-18.667534174163453	162.41640766494572	389.0507687049879	-23.894959293257717	150.39400751820722	
1746	17.45	440.08145757254294	82.85514322743512	192.01688002953847	417.0897206416687	93.34373138244848	191.60126690132898	435.2530255210396	47.86070351493181	194.2873292687728	-0.21133614332801454	-69.71077769942184	0.41853661815975146	-1.8382954446216013	89.97745873450366	-0.6680475440248768	103.9886179069761	-34.51761018817583	6.081749022847386	102.3779600305085	33.003473164821884	3.927310128759988	84.9121461614738	34.437302770747515	57.691253908768594	86.06977074700661	-33.13745179380365	58.85746343724759	168.1219804212251	1.2897529205993035	105.47751597036138	198.54432972514377	-1.452457101981123	13.315117243582398	125.43447279921438	-34.38038124966366	13.545814925546978	124.34920543808192	32.70123447913094	11.151840188725648	303.96507659952215	3.329939873921827	132.83390229839077	322.80532243315747	1.2733496053670201	66.30836548543493	402.66990145928185	-27.400645525658312	98.78783666453741	436.36480847142377	-19.28152880042537	105.91791193904342	415.0169001488925	-23.555442355569596	136.00964275590536	420.53804727965945	-18.72114037536497	162.3131188173394	389.1285691741044	-23.87458087585969	150.28900313061092	
1747	17.46	440.0452557784841	82.82442662656706	192.12742702868573	417.0437209981658	93.30890831169745	191.71933764658186	435.2388789600838	47.803759459422594	194.36070229569015	-0.21380572381172858	-69.73524087241081	0.43703944879013856	-1.3919833215011224	90.3138302711053	0.6906321202673161	104.0176006485079	-34.61394190361842	6.048674547036053	102.38325128594262	33.00451028261199	3.919781386839416	84.91725625836969	34.431674365664335	57.68678755294146	86.0787911735456	-33.13063031188105	58.85694614499011	168.12134766339827	1.2515911879349293	105.46779220232015	198.79954235807008	-1.3689359200609879	12.675496315663485	125.4499993973363	-34.327121414862575	13.505436715634099	124.35283340578972	32.70698338992726	11.17178561321445	303.96065836459184	3.318046262238857	132.84750121851297	322.6341028280211	1.0475768281311986	66.35045811536277	402.67758330166924	-27.37386751688392	98.78250549446486	436.3708853800718	-19.233653159634066	105.91079036614065	414.8758179816666	-23.165790541331173	135.8238551185692	420.4995243175901	-18.74270552062686	162.30888638381674	389.2969222669577	-23.879885358238365	150.21925861871358	
1748	17.47	440.0194985059327	82.7911028510238	192.21810357184955	417.0421426967628	93.26008114834688	191.82588538753805	435.20639449244584	47.773034009731944	194.41967540935752	-0.21395955068940253	-69.73974539744553	0.440756661411128	-0.051843432231493125	90.86579208339668	1.753285494188022	104.00857841400632	-34.62759502284642	6.068719641433721	102.39247715020414	32.993980887788766	3.904177825290308	84.91196959570762	34.43796272176974	57.68875421028869	86.07525234366037	-33.124134545015444	58.872251560419336	168.12020920283118	1.2250142559953812	105.47977262412681	198.68611902654138	-1.5579079351110003	13.561605678657187	125.47050736640749	-34.326839750906835	13.497579513048919	124.33641657764012	32.74178485351897	11.195739952133996	303.96208060698683	3.2988070505239904	132.86351308906382	322.6973606982594	1.1920803735076397	66.33740744284897	402.6659072091405	-27.342235064189207	98.78001715454793	436.37822375883906	-19.20049050254777	105.92865287988018	414.98994891776795	-23.588586327369722	136.0537065772	421.02827283789696	-18.462647004556008	162.43197035131945	389.11857918826456	-23.941564032404674	150.30374410087336	
1749	17.48	439.97766917717286	82.78346172933075	192.28186209607807	416.9826206763259	93.25206504415499	191.88341123673467	435.16197978534535	47.77842298241595	194.47501421018322	-0.22188410232012856	-69.73218064759668	0.44310234831257916	-0.13783552519773679	90.83613352495956	1.737038573830251	103.91152673444131	-34.482412597104606	6.170987242491548	102.37658759463629	33.01026266351341	3.9208766958335435	84.91169398014854	34.44110343738428	57.69420279402759	86.07014673240934	-33.120022264131876	58.864474989429716	168.1070050647027	1.2293479967558163	105.48286772034538	197.35261016804188	-0.32068158259520985	11.903666444374746	125.46471528914526	-34.31248559241539	13.491680645911698	124.33447609672949	32.75829260413145	11.216779276214163	303.94082051545234	3.303480549730075	132.8837679374043	323.2381022103635	-0.23239396894132724	66.42085840376734	402.66407002180546	-27.32237910432621	98.7990675588128	436.36000637544294	-19.185540504315895	105.9622033222868	414.85455081624696	-23.158842367873934	135.86308153034923	420.51555061830555	-18.74343490610023	162.38897900268023	388.92508535944523	-23.84235551934725	150.3352166099875	
1750	17.49	439.9539116523702	82.79052403065964	192.28980212311802	416.957175697718	93.28351484520311	191.88769736336994	435.13465397286006	47.796498691077566	194.51145659452123	-0.21262931070674362	-69.67487251197375	0.4028875368295074	-0.17811710288571625	90.83626847200202	1.683425015645723	103.99624854539861	-34.6034003824335	6.068533525013238	102.36680817875032	32.998560267648585	3.915105883607634	84.89215623855989	34.44586605350356	57.69631779264085	86.05677606046378	-33.12268651932185	58.86823519984783	168.09280145382866	1.2308057880109082	105.493217264957	198.80021024386943	-1.4940448948848832	12.651959287760677	125.44536995748393	-34.30831124387793	13.508797855291682	124.32178687715248	32.75043813056418	11.208339750162269	303.9194258317985	3.3055729947374957	132.90112139617236	322.7460258663753	0.8956792649413288	66.6137769211972	402.65737974348934	-27.337269190008158	98.85194490178964	436.34700855204153	-19.202756770088392	106.00762516921606	414.8553876107745	-23.16595450157907	135.91862309783062	420.52166965742566	-18.74366728884174	162.48416805471498	389.3365941340423	-23.807634774663192	150.22309959805145	
